<svg xmlns="http://www.w3.org/2000/svg" viewBox="0 -119.2 9736.9 1851.3" width="247" height="44" role="img" aria-label="Reprise">
<rect x="0.0" y="491.7" width="193.7" height="506.6" rx="96.9" fill="#33c9a3"/>
<rect x="365.1" y="208.6" width="193.7" height="1072.8" rx="96.9" fill="#33c9a3"/>
<rect x="730.1" y="0.0" width="193.7" height="1490.0" rx="96.9" fill="#33c9a3"/>
<rect x="1095.2" y="357.6" width="193.7" height="774.8" rx="96.9" fill="#33c9a3"/>
<rect x="1460.2" y="134.1" width="193.7" height="1221.8" rx="96.9" fill="#33c9a3"/>
<path d="M2429.46123046875 1490.0V0.0H2986.979296875Q3158.0994140625 0.0 3274.91923828125 59.8599853515625Q3391.7390625 119.719970703125 3451.6388427734373 227.13983154296875Q3511.538623046875 334.5596923828125 3511.538623046875 476.559326171875Q3511.538623046875 619.2789306640625 3451.0988647460936 724.1588134765625Q3390.6591064453123 829.0386962890625 3272.8993408203123 885.9987182617188Q3155.1395751953123 942.958740234375 2982.5795166015623 942.958740234375H2585.139208984375V721.7608642578125H2947.3005859375Q3048.741259765625 721.7608642578125 3112.8615600585936 693.2006225585938Q3176.9818603515623 664.640380859375 3207.8219482421873 609.9600219726562Q3238.6620361328123 555.2796630859375 3238.6620361328123 476.559326171875Q3238.6620361328123 396.5589599609375 3207.8219482421873 340.23858642578125Q3176.9818603515623 283.918212890625 3112.541552734375 253.71795654296875Q3048.1012451171873 223.5177001953125 2946.020556640625 223.5177001953125H2696.498095703125V1490.0ZM3267.461962890625 1490.0 2906.022021484375 814.3201904296875H3197.778857421875L3566.658740234375 1490.0Z" fill="#e7e9ec"/>
<path d="M4222.723853515625 1512.56005859375Q4054.6041025390623 1512.56005859375 3932.7842783203123 1441.8200073242188Q3810.9644541015623 1371.0799560546875 3745.4845346679685 1242.0799560546875Q3680.004615234375 1113.0799560546875 3680.004615234375 937.840087890625Q3680.004615234375 765.4801025390625 3744.7045053710935 635.0200805664062Q3809.4043955078123 504.56005859375 3927.764197753906 431.280029296875Q4046.124 358 4205.683692382812 358.0Q4308.363135742187 358.0 4400.622901367187 391.099853515625Q4492.882666992187 424.19970703125 4564.282630371094 492.9395751953125Q4635.68259375 561.679443359375 4676.602637695312 668.3194580078125Q4717.522681640625 774.95947265625 4717.522681640625 922.3997802734375V1003.51953125H3802.7245859375V827.04052734375H4587.764014648437L4466.325538085937 879.440673828125Q4466.325538085937 784.56005859375 4437.045325683594 713.0994873046875Q4407.76511328125 641.638916015625 4350.204688476562 601.778564453125Q4292.644263671875 561.918212890625 4207.123633789062 561.918212890625Q4121.60300390625 561.918212890625 4061.4825205078123 602.4185791015625Q4001.362037109375 642.9189453125 3969.8417734375 710.5394287109375Q3938.321509765625 778.159912109375 3938.321509765625 860.8802490234375V983.119384765625Q3938.321509765625 1089.1201171875 3974.301795410156 1161.940673828125Q4010.2820810546873 1234.76123046875 4075.362586425781 1271.7015380859375Q4140.443091796875 1308.641845703125 4226.243750976562 1308.641845703125Q4283.2441171875 1308.641845703125 4329.864417480469 1292.3417358398438Q4376.484717773437 1276.0416259765625 4410.0849375 1243.661376953125Q4443.685157226562 1211.2811279296875 4461.4452890625 1163.6407470703125L4700.24265234375 1213.0806884765625Q4673.522681640625 1302.8404541015625 4608.282813476562 1370.2603149414062Q4543.0429453125 1437.68017578125 4445.423194335937 1475.1201171875Q4347.803443359375 1512.56005859375 4222.723853515625 1512.56005859375Z" fill="#e7e9ec"/>
<path d="M4915.3888203125 1908.0V372.0H5170.0255390625V557.1197509765625H5186.425685546875Q5206.505641601562 517.400146484375 5243.385524414062 471.00018310546875Q5280.265407226562 424.6002197265625 5343.7254291992185 391.30010986328125Q5407.185451171875 358.0 5506.82583203125 358.0Q5636.386256835937 358.0 5740.366359375 424.0401611328125Q5844.346461914062 490.080322265625 5905.7464252929685 618.5003662109375Q5967.146388671875 746.92041015625 5967.146388671875 933.280029296875Q5967.146388671875 1116.6798095703125 5907.146388671875 1245.599853515625Q5847.146388671875 1374.5198974609375 5742.986293457031 1442.4600219726562Q5638.826198242187 1510.400146484375 5506.025905273437 1510.400146484375Q5410.105495117187 1510.400146484375 5346.365443847656 1477.6799926757812Q5282.625392578125 1444.9598388671875 5244.745509765625 1399.1798095703125Q5206.865626953125 1353.3997802734375 5186.425685546875 1313.0401611328125H5175.305568359375V1908.0ZM5435.467677734375 1296.4822998046875Q5522.828395507812 1296.4822998046875 5581.808864257812 1248.98193359375Q5640.789333007812 1201.4815673828125 5670.889552734375 1118.9410400390625Q5700.989772460937 1036.4005126953125 5700.989772460937 932.0Q5700.989772460937 827.8795166015625 5671.2095600585935 746.6190185546875Q5641.42934765625 665.3585205078125 5582.44887890625 618.63818359375Q5523.46841015625 571.9178466796875 5435.467677734375 571.9178466796875Q5349.746974609375 571.9178466796875 5290.54653515625 616.7181396484375Q5231.346095703125 661.5184326171875 5200.885890625 742.138916015625Q5170.425685546875 822.7593994140625 5170.425685546875 932.0Q5170.425685546875 1040.5206298828125 5201.2058979492185 1122.5611572265625Q5231.986110351562 1204.6016845703125 5291.506557128906 1250.5419921875Q5351.02700390625 1296.4822998046875 5435.467677734375 1296.4822998046875Z" fill="#e7e9ec"/>
<path d="M6168.8128203125 1490.0V372.0H6420.56965625V559.119384765625H6432.56965625Q6463.209670898437 461.8798828125 6538.029861328125 409.2999267578125Q6612.850051757812 356.719970703125 6708.890212890625 356.719970703125Q6731.050125 356.719970703125 6758.010146972656 358.7999267578125Q6784.970168945312 360.8798828125 6803.850051757812 364.3997802734375V603.357421875Q6787.930374023437 598.1175537109375 6751.7905424804685 593.9375610351562Q6715.6507109375 589.757568359375 6681.450637695312 589.757568359375Q6609.010330078125 589.757568359375 6551.450088378906 620.7376708984375Q6493.889846679687 651.7177734375 6461.309707519531 706.2579345703125Q6428.729568359375 760.798095703125 6428.729568359375 832.478271484375V1490.0Z" fill="#e7e9ec"/>
<path d="M6957.2368203125 1490.0V372.0H7217.153568359375V1490.0ZM7087.475223632812 213.8389892578125Q7025.315677734375 213.8389892578125 6980.755985351562 171.9800967605862Q6936.19629296875 130.1212042633599 6936.19629296875 71.51875476724308Q6936.19629296875 11.7203369140625 6980.755985351562 -29.619384765625Q7025.315677734375 -70.9591064453125 7087.475223632812 -70.9591064453125Q7150.171931222098 -70.9591064453125 7194.783050083704 -29.657954624721015Q7239.394168945312 11.64319719587047 7239.394168945312 71.49993896484375Q7239.394168945312 130.1595458984375 7194.783050083704 171.999267578125Q7150.171931222098 213.8389892578125 7087.475223632812 213.8389892578125Z" fill="#e7e9ec"/>
<path d="M7891.499077148437 1512.56005859375Q7763.179619140625 1512.56005859375 7663.960014648437 1475.6401977539062Q7564.74041015625 1438.7203369140625 7501.5206225585935 1367.8605346679688Q7438.300834960937 1297.000732421875 7418.6608203125 1195.9609375L7662.017875976562 1150.2811279296875Q7684.577934570312 1232.9215087890625 7743.3382495117185 1273.2216186523438Q7802.098564453125 1313.521728515625 7896.698784179687 1313.521728515625Q7992.819633789062 1313.521728515625 8049.180168457031 1275.041259765625Q8105.540703125 1236.560791015625 8105.540703125 1180.1602783203125Q8105.540703125 1131.5198974609375 8068.4605639648435 1100.0396118164062Q8031.380424804687 1068.559326171875 7954.50017578125 1052.0792236328125L7764.1803515625 1010.9591064453125Q7605.700615234375 976.759033203125 7527.740776367187 898.7391357421875Q7449.7809375 820.71923828125 7449.7809375 697.679443359375Q7449.7809375 594.1197509765625 7506.840812988281 517.9198608398438Q7563.900688476562 441.719970703125 7665.320366210937 399.8599853515625Q7766.740043945312 358.0 7900.499443359375 358.0Q8027.378959960937 358.0 8118.8585131835935 393.93994140625Q8210.33806640625 429.8798828125 8266.957817382812 494.51971435546875Q8323.577568359375 559.1595458984375 8345.697685546875 646.439208984375L8113.940483398437 691.6790771484375Q8094.540336914062 633.47900390625 8044.460197753906 592.9386596679688Q7994.38005859375 552.3983154296875 7904.019340820312 552.3983154296875Q7821.298637695312 552.3983154296875 7765.7781909179685 588.4987182617188Q7710.257744140625 624.59912109375 7710.257744140625 681.9996337890625Q7710.257744140625 730.68017578125 7746.798088378906 762.6004028320312Q7783.338432617187 794.5206298828125 7868.7389453125 813.2008056640625L8058.978081054687 853.2008056640625Q8217.817802734375 887.0408935546875 8294.957634277343 962.0009155273438Q8372.097465820312 1036.9609375 8372.097465820312 1155.2008056640625Q8372.097465820312 1261.1204833984375 8310.837700195312 1341.580322265625Q8249.577934570312 1422.0401611328125 8141.258293457031 1467.3001098632812Q8032.93865234375 1512.56005859375 7891.499077148437 1512.56005859375Z" fill="#e7e9ec"/>
<path d="M9062.843853515624 1512.56005859375Q8894.724102539061 1512.56005859375 8772.904278320311 1441.8200073242188Q8651.084454101561 1371.0799560546875 8585.604534667968 1242.0799560546875Q8520.124615234374 1113.0799560546875 8520.124615234374 937.840087890625Q8520.124615234374 765.4801025390625 8584.824505371093 635.0200805664062Q8649.524395507811 504.56005859375 8767.884197753905 431.280029296875Q8886.243999999999 358 9045.803692382811 358.0Q9148.483135742186 358.0 9240.742901367186 391.099853515625Q9333.002666992186 424.19970703125 9404.402630371093 492.9395751953125Q9475.802593749999 561.679443359375 9516.722637695311 668.3194580078125Q9557.642681640624 774.95947265625 9557.642681640624 922.3997802734375V1003.51953125H8642.844585937499V827.04052734375H9427.884014648436L9306.445538085936 879.440673828125Q9306.445538085936 784.56005859375 9277.165325683593 713.0994873046875Q9247.885113281249 641.638916015625 9190.324688476561 601.778564453125Q9132.764263671874 561.918212890625 9047.243633789061 561.918212890625Q8961.723003906249 561.918212890625 8901.602520507811 602.4185791015625Q8841.482037109374 642.9189453125 8809.961773437499 710.5394287109375Q8778.441509765624 778.159912109375 8778.441509765624 860.8802490234375V983.119384765625Q8778.441509765624 1089.1201171875 8814.421795410155 1161.940673828125Q8850.402081054686 1234.76123046875 8915.48258642578 1271.7015380859375Q8980.563091796874 1308.641845703125 9066.363750976561 1308.641845703125Q9123.364117187499 1308.641845703125 9169.984417480468 1292.3417358398438Q9216.604717773436 1276.0416259765625 9250.204937499999 1243.661376953125Q9283.805157226561 1211.2811279296875 9301.565289062499 1163.6407470703125L9540.362652343749 1213.0806884765625Q9513.642681640624 1302.8404541015625 9448.402813476561 1370.2603149414062Q9383.162945312499 1437.68017578125 9285.543194335936 1475.1201171875Q9187.923443359374 1512.56005859375 9062.843853515624 1512.56005859375Z" fill="#e7e9ec"/>
</svg>
